<svg xmlns="http://www.w3.org/2000/svg" viewBox="0 0 1440 320"><path fill="#0099ff" fill-opacity="1" d="M0,96L26.7,122.7C53.3,149,107,203,160,208C213.3,213,267,171,320,170.7C373.3,171,427,213,480,208C533.3,203,587,149,640,117.3C693.3,85,747,75,800,112C853.3,149,907,235,960,234.7C1013.3,235,1067,149,1120,128C1173.3,107,1227,149,1280,154.7C1333.3,160,1387,128,1413,112L1440,96L1440,320L1413.3,320C1386.7,320,1333,320,1280,320C1226.7,320,1173,320,1120,320C1066.7,320,1013,320,960,320C906.7,320,853,320,800,320C746.7,320,693,320,640,320C586.7,320,533,320,480,320C426.7,320,373,320,320,320C266.7,320,213,320,160,320C106.7,320,53,320,27,320L0,320Z"></path></svg>